<?xml version="1.0" encoding="UTF-8"?>
<svg height="16px" viewBox="0 0 16 16" width="16px" xmlns="http://www.w3.org/2000/svg">
    <g fill="#241f31">
        <path d="m 4 2 c -2.199219 0 -4 1.800781 -4 4 v 4 c 0 2.199219 1.800781 4 4 4 h 8 c 2.199219 0 4 -1.800781 4 -4 v -4 c 0 -2.199219 -1.800781 -4 -4 -4 h -2 v 2 h 2 c 1.125 0 2 0.875 2 2 v 4 c 0 1.125 -0.875 2 -2 2 h -8 c -1.125 0 -2 -0.875 -2 -2 v -4 c 0 -1.125 0.875 -2 2 -2 h 2 v -2 z m 0 0"/>
        <path d="m 5 14 h 6 c 0.550781 0 1 0.449219 1 1 s -0.449219 1 -1 1 h -6 c -0.550781 0 -1 -0.449219 -1 -1 s 0.449219 -1 1 -1 z m 0 0"/>
        <path d="m 8 -0.0195312 c -0.554688 0 -1 0.4453122 -1 1.0000002 v 5.960937 l -0.882812 -0.683594 c -0.4375 -0.339843 -1.0625 -0.261718 -1.398438 0.179688 c -0.339844 0.4375 -0.261719 1.0625 0.175781 1.402344 l 2.492188 1.929687 c 0.078125 0.0625 0.167969 0.113281 0.261719 0.148438 c 0.003906 0 0.007812 0.003906 0.011718 0.003906 c 0.042969 0.015625 0.085938 0.027344 0.132813 0.039063 c 0.007812 0 0.011719 0 0.019531 0.003906 c 0.042969 0.007812 0.089844 0.011718 0.132812 0.015625 h 0.09375 c 0.226563 0.007812 0.457032 -0.058594 0.652344 -0.210938 l 2.492188 -1.929687 c 0.4375 -0.339844 0.515625 -0.964844 0.179687 -1.402344 c -0.339843 -0.441406 -0.96875 -0.519531 -1.40625 -0.179688 l -0.957031 0.742188 v -6.019531 c 0 -0.554688 -0.445312 -1.0000002 -1 -1.0000002 z m 0 0"/>
    </g>
</svg>
