<?xml version="1.0" encoding="UTF-8"?>
<svg height="128px" viewBox="0 0 128 128" width="128px" xmlns="http://www.w3.org/2000/svg" xmlns:xlink="http://www.w3.org/1999/xlink">
    <linearGradient id="a" gradientTransform="matrix(0.171803 0 0 0.175663 -29.09639 -22.180435)" gradientUnits="userSpaceOnUse" x1="402.184753" x2="681.575134" y1="775.236755" y2="775.236755">
        <stop offset="0" stop-color="#9a9996"/>
        <stop offset="0.0827573" stop-color="#c5c4c1"/>
        <stop offset="0.171146" stop-color="#9a9996"/>
        <stop offset="0.867204" stop-color="#9a9996"/>
        <stop offset="0.940861" stop-color="#bcbbb7"/>
        <stop offset="1" stop-color="#9a9996"/>
    </linearGradient>
    <clipPath id="b">
        <path d="m 12 41 h 104 v 51 h -104 z m 0 0"/>
    </clipPath>
    <clipPath id="c">
        <path d="m 4 48 c 56 32 76 -24 122 0 v 70 h -122 z m 0 0"/>
    </clipPath>
    <linearGradient id="d" gradientUnits="userSpaceOnUse" x1="11.99999245832" x2="115.99996545644" y1="91.99991832097" y2="91.99991832097">
        <stop offset="0" stop-color="#5e5c64"/>
        <stop offset="0.043961" stop-color="#9b9a9f"/>
        <stop offset="0.088155" stop-color="#5e5c64"/>
        <stop offset="0.903842" stop-color="#5e5c64"/>
        <stop offset="0.951638" stop-color="#9b99a0"/>
        <stop offset="1" stop-color="#5e5c64"/>
    </linearGradient>
    <clipPath id="e">
        <path d="m 12 41 h 104 v 49 h -104 z m 0 0"/>
    </clipPath>
    <clipPath id="f">
        <path d="m 4 48 c 56 32 76 -24 122 0 v 70 h -122 z m 0 0"/>
    </clipPath>
    <clipPath id="g">
        <path d="m 16 41 h 96 v 45 h -96 z m 0 0"/>
    </clipPath>
    <clipPath id="h">
        <path d="m 4 47.292969 c 56 32 76 -24 122 0 v 70 h -122 z m 0 0"/>
    </clipPath>
    <linearGradient id="i" gradientUnits="userSpaceOnUse" x1="66" x2="66" y1="28" y2="50">
        <stop offset="0" stop-color="#3584e4"/>
        <stop offset="1" stop-color="#ffffff"/>
    </linearGradient>
    <path d="m 20.941406 20.277344 h 86.117188 c 4.9375 0 8.941406 4.003906 8.941406 8.941406 v 51.839844 c 0 4.9375 -4.003906 8.941406 -8.941406 8.941406 h -86.117188 c -4.9375 0 -8.941406 -4.003906 -8.941406 -8.941406 v -51.839844 c 0 -4.9375 4.003906 -8.941406 8.941406 -8.941406 z m 0 0" fill="#3584e4" fill-opacity="0.219733"/>
    <path d="m 116 72 h -104 v -20 s 18 -4 30 -4 s 32 2 52 2 h 22 z m 0 0" fill="#3584e4"/>
    <path d="m 21.703125 22 h 84.59375 c 4.253906 0 7.703125 3.449219 7.703125 7.703125 v 50.59375 c 0 4.253906 -3.449219 7.703125 -7.703125 7.703125 h -84.59375 c -4.253906 0 -7.703125 -3.449219 -7.703125 -7.703125 v -50.59375 c 0 -4.253906 3.449219 -7.703125 7.703125 -7.703125 z m 0 0" fill="none" stroke="#3584e4" stroke-dasharray="4 4" stroke-linejoin="round" stroke-width="4"/>
    <path d="m 44.390625 61.429688 h 39.21875 c 2.425781 0 4.390625 1.9375 4.390625 4.328124 v 45.917969 c 0 2.386719 -1.964844 4.324219 -4.390625 4.324219 h -39.21875 c -2.425781 0 -4.390625 -1.9375 -4.390625 -4.324219 v -45.917969 c 0 -2.390624 1.964844 -4.328124 4.390625 -4.328124 z m 0 0" fill="url(#a)"/>
    <path d="m 44.390625 61.429688 h 39.21875 c 2.425781 0 4.390625 1.9375 4.390625 4.328124 v 43.917969 c 0 2.386719 -1.964844 4.324219 -4.390625 4.324219 h -39.21875 c -2.425781 0 -4.390625 -1.9375 -4.390625 -4.324219 v -43.917969 c 0 -2.390624 1.964844 -4.328124 4.390625 -4.328124 z m 0 0" fill="#deddda"/>
    <path d="m 40 71.472656 h 48 v 29.027344 h -48 z m 0 0" fill="#c0bfbc"/>
    <g clip-path="url(#b)">
        <g clip-path="url(#c)">
            <path d="m 19.703125 22.277344 h 88.59375 c 4.253906 0 7.703125 3.449218 7.703125 7.703125 v 54.316406 c 0 4.253906 -3.449219 7.703125 -7.703125 7.703125 h -88.59375 c -4.253906 0 -7.703125 -3.449219 -7.703125 -7.703125 v -54.316406 c 0 -4.253907 3.449219 -7.703125 7.703125 -7.703125 z m 0 0" fill="url(#d)"/>
        </g>
    </g>
    <g clip-path="url(#e)">
        <g clip-path="url(#f)">
            <path d="m 19.703125 20.277344 h 88.59375 c 4.253906 0 7.703125 3.449218 7.703125 7.703125 v 54.316406 c 0 4.253906 -3.449219 7.703125 -7.703125 7.703125 h -88.59375 c -4.253906 0 -7.703125 -3.449219 -7.703125 -7.703125 v -54.316406 c 0 -4.253907 3.449219 -7.703125 7.703125 -7.703125 z m 0 0" fill="#241f31"/>
        </g>
    </g>
    <g clip-path="url(#g)">
        <g clip-path="url(#h)">
            <path d="m 20.441406 21.292969 h 87.117188 c 2.453125 0 4.441406 1.988281 4.441406 4.441406 v 55.117187 c 0 2.453126 -1.988281 4.441407 -4.441406 4.441407 h -87.117188 c -2.453125 0 -4.441406 -1.988281 -4.441406 -4.441407 v -55.117187 c 0 -2.453125 1.988281 -4.441406 4.441406 -4.441406 z m 0 0" fill="#99c1f1"/>
        </g>
    </g>
    <path d="m 63.9375 4.003906 c -2.230469 0 -4.046875 1.816406 -4.046875 4.046875 v 54.742188 l -9.28125 -9.277344 c -0.757813 -0.757813 -1.785156 -1.183594 -2.859375 -1.183594 s -2.101562 0.425781 -2.863281 1.183594 c -1.578125 1.582031 -1.578125 4.140625 0 5.722656 l 16.1875 16.1875 c 1.582031 1.578125 4.140625 1.578125 5.722656 0 l 16.1875 -16.1875 c 1.578125 -1.582031 1.578125 -4.140625 0 -5.722656 c -1.582031 -1.582031 -4.140625 -1.582031 -5.722656 0 l -9.28125 9.277344 v -54.742188 c 0 -2.230469 -1.816407 -4.046875 -4.042969 -4.046875 z m 0 0" fill="url(#i)"/>
    <path d="m 16 58 v -6.824219 l -4 0.824219 v 5.75 z m 0 0" fill="#241f31"/>
</svg>
